PathFileType	4	(X/Y/Z)	OpenSim_Sub11_EMGPreOp_Gyro.trc
DataRate	CameraRate	NumFrames	NumMarkers	Units	OrigDataRate	OrigDataStartFrame	OrigNumFrames
100	100	17	8	m	100	736	5885
Frame#	Time	torso_imu_offset_imu	pelvis_imu_offset_imu	tibia_r_imu_offset_imu	femur_r_imu_offset_imu	tibia_l_imu_offset_imu	femur_l_imu_offset_imu	toes_r_imu_offset_imu	toes_l_imu_offset_imu
				X1	Y1	Z1	X2	Y2	Z2	X3	Y3	Z3	X4	Y4	Z4	X5	Y5	Z5	X6	Y6	Z6	X7	Y7	Z7	X8		Y8	Z8	

736	7.35000000	-0.22813916	-0.15018349	-0.11530525	-0.19683214	0.16081591	-0.09373943	0.17802305	-0.46932171	-2.07432417	1.75712494	0.86815110	1.56510479	0.09075409	-0.14993742	0.03779254	-0.01416643	-0.23623436	0.41521693	0.31708915	-2.42271984	-1.15873914	-0.03137936	-0.00371858	-0.01761346
737	7.36000000	-0.20006080	-0.15772536	-0.11640073	-0.17453739	0.16983376	-0.09178040	0.01701695	-0.54870821	-1.91349212	1.95342714	0.90628069	1.45054579	0.08656910	-0.14280889	0.02692833	0.07330855	-0.17831110	0.37036472	-0.06154865	-1.67390382	-1.09985989	-0.06460212	-0.02319229	-0.00822027
738	7.37000000	-0.18764582	-0.17660991	-0.11289370	-0.15763821	0.16591891	-0.07148678	-0.08961868	-0.51719654	-1.64094126	2.08987727	0.92700397	1.29793065	0.04298028	-0.12167270	0.04401324	0.15305242	-0.11130389	0.34222811	-0.21307094	-0.90887889	-1.15694904	-0.00546723	0.00268833	-0.00072170
739	7.38000000	-0.18879915	-0.17857565	-0.11198858	-0.15073859	0.16258700	-0.02904359	-0.30494765	-0.52178015	-1.19118124	2.11184258	0.90931765	1.09902931	0.00757500	-0.10797240	0.07736079	0.19726876	-0.08050932	0.34570967	-0.74100437	-0.24693583	-1.05153682	-0.00137328	-0.02337007	0.00532930
740	7.39000000	-0.20604095	-0.17851715	-0.12102975	-0.14902598	0.16481870	0.02528039	-0.66053127	-0.52088623	-0.58309205	2.04276647	0.87363222	0.93167356	0.00516618	-0.09814321	0.09921668	0.19633912	-0.08680448	0.34703483	-1.06781677	0.06273583	-0.91269242	-0.02043646	-0.03810764	0.01857076
741	7.40000000	-0.20238724	-0.17924196	-0.11876491	-0.14180040	0.15943879	0.07745706	-0.93565210	-0.44514738	0.03359670	1.84072153	0.80463601	0.81724820	-0.03465485	-0.08226444	0.10340175	0.11326231	-0.09722583	0.33826073	-0.64974776	0.29204164	-0.82049364	-0.04486993	-0.04037002	0.03475174
742	7.41000000	-0.17601497	-0.18612263	-0.11614149	-0.13708551	0.15344588	0.12762444	-1.01965796	-0.37610362	0.52292073	1.49967406	0.72579511	0.69695194	-0.08866219	-0.07858373	0.11768342	0.01163965	-0.13183571	0.34947264	-0.41339189	0.61608087	-0.61073978	-0.06137445	-0.05245242	0.05578987
743	7.42000000	-0.15038470	-0.19556022	-0.11213585	-0.13104267	0.14645608	0.17151337	-1.02383656	-0.34500497	0.86838807	1.09419713	0.68239637	0.57157665	-0.09234268	-0.08674399	0.15804636	-0.10591783	-0.17519140	0.34636397	-0.54157713	0.98011078	-0.33391139	-0.10175156	-0.05114359	0.07595757
744	7.43000000	-0.13900211	-0.20187121	-0.10548280	-0.13227520	0.14405036	0.20547988	-0.96642567	-0.30115317	1.12878442	0.71138029	0.65581737	0.49354619	-0.08620764	-0.08018281	0.21805487	-0.24597677	-0.21249729	0.30163628	-0.56763900	1.28558927	-0.07011415	-0.13679780	-0.05899982	0.09923135
745	7.44000000	-0.13702136	-0.20740305	-0.09343127	-0.13370083	0.13644120	0.23014705	-0.86243930	-0.26965030	1.35610369	0.36302270	0.61908403	0.46270269	-0.10073995	-0.06456720	0.26693675	-0.35826165	-0.23945386	0.24316398	-0.60867552	1.52894896	0.13023291	-0.13879698	-0.03777207	0.11758090
746	7.45000000	-0.12488868	-0.20786290	-0.08556586	-0.14610549	0.12266648	0.24544608	-0.76981574	-0.26950565	1.60617864	0.05233763	0.55246580	0.47534151	-0.09542532	-0.05057804	0.30063515	-0.41748728	-0.25372884	0.19043594	-0.51515643	1.76322773	0.26481790	-0.15049051	-0.04791913	0.12131204
747	7.46000000	-0.11015690	-0.20593878	-0.07668471	-0.15842543	0.12819035	0.25674078	-0.69982085	-0.28421776	1.88159089	-0.22468339	0.45631872	0.47489500	-0.05152563	-0.04024317	0.31253520	-0.43431794	-0.24957327	0.14699558	-0.53470997	1.99592749	0.35131053	-0.15914166	-0.03494834	0.12663570
748	7.47000000	-0.10807059	-0.20809182	-0.05644459	-0.17023077	0.12558454	0.25693964	-0.63085453	-0.27048339	2.16138902	-0.52185072	0.32153226	0.36006015	-0.02014381	-0.03245971	0.30598842	-0.40160681	-0.22955507	0.13152860	-0.64999986	2.21153294	0.38432054	-0.21242239	-0.06097952	0.13217938
749	7.48000000	-0.09546082	-0.21088780	-0.04119327	-0.18663637	0.12481595	0.25267007	-0.58418151	-0.25824844	2.43421705	-0.82707924	0.15754451	0.29412229	-0.00875807	-0.02692023	0.31390703	-0.32236691	-0.19850513	0.13683889	-0.76519801	2.39994164	0.39333478	-0.15740244	-0.00233138	0.12763711
750	7.49000000	-0.09635379	-0.21044489	-0.02152659	-0.19991413	0.12190131	0.24416369	-0.58423716	-0.25763686	2.69350900	-1.09526157	-0.00907899	0.27876930	0.00185298	-0.01236276	0.33780731	-0.22636563	-0.17309331	0.16282848	-0.84207926	2.57927313	0.40169574	-0.14077567	-0.00918132	0.12070277
751	7.50000000	-0.08457917	-0.21048938	-0.00966754	-0.21567729	0.11911151	0.23165503	-0.54984351	-0.25544932	2.93046589	-1.30676220	-0.13944806	0.29064863	0.05265822	0.00510030	0.33137111	-0.13243109	-0.15044183	0.19882958	-0.90314117	2.74388020	0.41430666	-0.15699761	-0.02471507	0.11321599
752	7.51000000	-0.07196687	-0.21310812	0.00088147	-0.22569706	0.12662002	0.21935555	-0.36718169	-0.24632489	3.11996250	-1.48846988	-0.20738258	0.30362519	0.06983509	0.02117887	0.29772975	-0.04453396	-0.12874020	0.24014612	-0.99651986	2.83975763	0.41286391	-0.14724614	-0.00806198	0.09859893
